<svg width="16" height="13" viewBox="0 0 16 13" fill="none" xmlns="http://www.w3.org/2000/svg">
<path d="M0.810791 3.15084L1.0048 3.873L1.0195 3.86318C1.41515 3.6005 1.72805 3.39302 2.0796 3.39302C2.39371 3.39302 2.69431 3.5621 2.91815 3.89514C4.13612 5.70587 5.07809 12.0026 7.35725 12.0026C9.60669 12.0026 15.256 5.13731 15.0769 2.03947C14.9879 0.500584 13.8877 0.27063 13.2396 0.27063C11.9917 0.27063 10.7478 1.04274 10.12 2.51945C11.1915 2.34731 11.9507 2.94903 11.8691 4.05103C11.7748 5.30269 9.6792 8.53689 8.70402 8.53689C7.03695 8.53689 6.25698 2.90496 5.69922 1.19536C5.55953 0.76861 5.15561 0.503421 4.64434 0.503421C4.28136 0.503421 3.90563 0.642942 3.58587 0.896678C2.84912 1.48095 2.098 2.08201 1.36899 2.6881L0.810791 3.15084Z" fill="black"/>
</svg>
