<svg width="16" height="12" viewBox="0 0 16 12" fill="none" xmlns="http://www.w3.org/2000/svg">
<path d="M6.18865 11.9894C5.57156 11.9894 4.9364 11.9394 4.29742 11.8393C3.172 11.6627 2.03275 11.074 1.71038 10.8977L0.864868 10.4354L1.78027 10.1344C2.78093 9.80538 3.38964 9.60125 4.14315 9.28159C3.38866 8.91621 2.80716 8.25895 2.52725 7.4093L2.3143 6.76281L2.48893 6.78948C2.32333 6.62258 2.19258 6.45317 2.09121 6.29911C1.73074 5.75159 1.53988 5.08256 1.58049 4.50923L1.62056 3.94494L1.95839 4.07581C1.81587 3.80667 1.71288 3.51925 1.65235 3.21799C1.50482 2.48331 1.62829 1.7028 2.00009 1.02027L2.29437 0.480042L2.68795 0.952771C3.93269 2.44804 5.50929 3.33503 7.38049 3.5947C7.30406 3.06786 7.36133 2.55942 7.55087 2.10367C7.77156 1.57302 8.16416 1.12305 8.68588 0.802307C9.2653 0.446182 9.96797 0.273618 10.6644 0.316405C11.4033 0.361805 12.0742 0.638671 12.6071 1.11761C12.8673 1.04999 13.059 0.977812 13.3181 0.880261C13.474 0.821578 13.6508 0.754948 13.872 0.678736L14.6873 0.397842L14.1557 1.91619C14.1907 1.91325 14.2269 1.91075 14.2646 1.90912L15.1352 1.8697L14.6207 2.57292C14.5912 2.6132 14.5836 2.62463 14.5732 2.64042C14.5317 2.70291 14.4801 2.78065 13.7738 3.72371C13.597 3.95986 13.5087 4.26742 13.5252 4.58991C13.5878 5.81539 13.4374 6.92416 13.078 7.88529C12.7381 8.7946 12.2114 9.57479 11.5127 10.2042C10.648 10.9829 9.54543 11.516 8.23547 11.7886C7.5929 11.9223 6.90286 11.9894 6.18865 11.9894Z" fill="black"/>
</svg>
