<svg width="16" height="12" viewBox="0 0 16 12" fill="none" xmlns="http://www.w3.org/2000/svg">
<path d="M0.864868 2.96166L1.05888 3.68382L1.07358 3.674C1.46923 3.41132 1.78213 3.20384 2.13368 3.20384C2.44778 3.20384 2.74838 3.37292 2.97223 3.70596C4.1902 5.51669 5.13217 11.8134 7.41133 11.8134C9.66077 11.8134 15.3101 4.94813 15.131 1.85029C15.042 0.311406 13.9418 0.0814514 13.2937 0.0814514C12.0458 0.0814514 10.8019 0.853566 10.1741 2.33027C11.2455 2.15813 12.0048 2.75985 11.9232 3.86185C11.8289 5.11351 9.73328 8.34771 8.7581 8.34771C7.09103 8.34771 6.31105 2.71578 5.7533 1.00618C5.61361 0.579432 5.20969 0.314242 4.69842 0.314242C4.33543 0.314242 3.95971 0.453764 3.63995 0.707499C2.9032 1.29177 2.15208 1.89283 1.42306 2.49892L0.864868 2.96166Z" fill="black"/>
</svg>
