<svg width="15" height="15" viewBox="0 0 15 15" fill="none" xmlns="http://www.w3.org/2000/svg">
<g clip-path="url(#clip0_1_411)">
<path d="M11.2078 3.20502C11.6444 2.71846 11.8989 2.20904 11.9882 1.68612C10.7537 0.65237 9.16565 0 7.43325 0C6.53875 0 5.68572 0.173109 4.89661 0.475995C6.218 1.7999 7.32307 3.36746 8.18742 5.05957C9.46102 4.59904 10.5225 3.96898 11.2078 3.20502Z" fill="black"/>
<path d="M11.83 3.76354C11.063 4.61842 9.92291 5.31369 8.56079 5.81897C8.73009 6.19023 8.88567 6.56921 9.0321 6.9531C9.73162 6.80264 10.4566 6.71706 11.196 6.71706C12.3599 6.71706 13.4907 6.91456 14.5334 7.27754C14.5344 7.22975 14.5406 7.18326 14.5406 7.13514C14.5406 5.29463 13.8314 3.6207 12.6795 2.35712C12.5095 2.84683 12.2274 3.32076 11.83 3.76354Z" fill="black"/>
<path d="M0.433258 5.63324C1.32199 5.79034 2.30664 5.88092 3.25254 5.88092C4.71885 5.88092 6.12734 5.67276 7.38266 5.31522C6.51766 3.65326 5.40562 2.1237 4.07834 0.844543C2.27202 1.81602 0.878333 3.57389 0.433258 5.63324Z" fill="black"/>
<path d="M14.4613 8.13842C13.4527 7.75878 12.3426 7.55322 11.196 7.55322C10.5532 7.55322 9.92193 7.62062 9.31311 7.74364C9.93119 9.59722 10.2888 11.6007 10.3499 13.6372C12.5243 12.6535 14.1138 10.5815 14.4613 8.13842Z" fill="black"/>
<path d="M0.270294 7.13516C0.270294 9.33397 1.33018 11.3302 2.9034 12.6348C3.07009 11.5259 3.57003 10.435 4.3843 9.522C5.35284 8.43609 6.69688 7.62292 8.21893 7.15879C8.07729 6.79341 7.92258 6.43522 7.75927 6.08203C6.39922 6.48541 4.86737 6.71709 3.25256 6.71709C2.26464 6.71709 1.23655 6.6227 0.304589 6.45895C0.283468 6.68182 0.270294 6.90697 0.270294 7.13516V7.13516Z" fill="black"/>
<path d="M5.00854 10.0784C4.18601 11.0008 3.74039 12.0826 3.68323 13.1893C4.77338 13.87 6.05602 14.2703 7.43327 14.2703C8.15738 14.2703 8.85603 14.1601 9.51482 13.9579C9.48281 11.8762 9.13333 9.82941 8.49794 7.94547C7.10708 8.36256 5.88367 9.09713 5.00854 10.0784Z" fill="black"/>
</g>
<defs>
<clipPath id="clip0_1_411">
<rect width="14.2703" height="14.2703" fill="white" transform="translate(0.270264)"/>
</clipPath>
</defs>
</svg>
